{"title":"Adrian Shergold - The Last Hangman (2005)","uid":5553229,"size":4691341264,"categoryP":"video","categoryS":"hd___movies","magnet":"?xt=urn:btih:d4006d90cdc14018855a44c0328f147363055c65&amp;dn=Adrian+Shergold+-+The+Last+Hangman+%282005%29&amp;tr=udp%3A%2F%2Ftracker.openbittorrent.com%3A80&amp;tr=udp%3A%2F%2Fopen.demonii.com%3A1337&amp;tr=udp%3A%2F%2Ftracker.coppersurfer.tk%3A6969&amp;tr=udp%3A%2F%2Fexodus.desync.com%3A6969","seeders":0,"leechers":2,"uploader":"mfccorrea","files":4,"time":1273601091,"description":"The life and career of the last in a long line of highly praised British executioners is explored in this drama directed by Adrian Shergold and starring Timothy Spall in the role of Albert Pierrepoint. As a youth, Pierrepoint was discouraged from pursuing the family career by a mother who claimed that the horrific line of work spurned his father to take up drink before eventually ushering him to an early grave. Despite his father's adverse reaction to the job's more gruesome details, Albert still thinks that he has what it takes to make it as an executioner and is soon rising to the upper echelon of hangmen thanks to his speed on the job and unwavering humanity. Eventually called before General Montgomery so that he may employ his skills in dispensing the Nuremberg criminals, Pierrepoint earns the respect and admiration of his fellow Britons just as his experiences in Germany stir his increasingly troubled conscience and abolitionists set into motion a heated campaign aimed at bringing the practice of hanging to an end. \n\n   General\n      Complete name : The Last Hangman.mkv\n      Format : Matroska\n      File size : 4.37 GiB\n      Duration : 1h 35mn\n      Overall bit rate : 6 583 Kbps\n      Encoded date : UTC 2009-12-09 19:23:20\n      Writing application : mkvmerge v2.9.7 ('Tenderness') built on Jul  1 2009 18:43:35\n      Writing library : libebml v0.7.7 + libmatroska v0.8.1\n   Video #1\n      ID : 1\n      Format : AVC\n      Format/Info : Advanced Video Codec\n      Format profile : &lt;a class=&quot;__cf_email__&quot; href=&quot;/cdn-cgi/l/email-protection&quot; data-cfemail=&quot;541c3d333c1418607a65&quot;&gt;[email&amp;#160;protected]&lt;/a&gt;&lt;script cf-hash='f9e31' type=&quot;text/javascript&quot;&gt;\n/* &lt;![CDATA[ */!function(){try{var t=&quot;currentScript&quot;in document?document.currentScript:function(){for(var t=document.getElementsByTagName(&quot;script&quot;),e=t.length;e--;)if(t[e].getAttribute(&quot;cf-hash&quot;))return t[e]}();if(t&amp;&amp;t.previousSibling){var e,r,n,i,c=t.previousSibling,a=c.getAttribute(&quot;data-cfemail&quot;);if(a){for(e=&quot;&quot;,r=parseInt(a.substr(0,2),16),n=2;a.length-n;n+=2)i=parseInt(a.substr(n,2),16)^r,e+=String.fromCharCode(i);e=document.createTextNode(e),c.parentNode.replaceChild(e,c)}}}catch(u){}}();/* ]]&gt; */&lt;/script&gt;\n      Format settings, CABAC : Yes\n      Format settings, ReFrames : 5 frames\n      Muxing mode : Container profile=&lt;a class=&quot;__cf_email__&quot; href=&quot;/cdn-cgi/l/email-protection&quot; data-cfemail=&quot;05506b6e6b6a726b45312b34&quot;&gt;[email&amp;#160;protected]&lt;/a&gt;&lt;script cf-hash='f9e31' type=&quot;text/javascript&quot;&gt;\n/* &lt;![CDATA[ */!function(){try{var t=&quot;currentScript&quot;in document?document.currentScript:function(){for(var t=document.getElementsByTagName(&quot;script&quot;),e=t.length;e--;)if(t[e].getAttribute(&quot;cf-hash&quot;))return t[e]}();if(t&amp;&amp;t.previousSibling){var e,r,n,i,c=t.previousSibling,a=c.getAttribute(&quot;data-cfemail&quot;);if(a){for(e=&quot;&quot;,r=parseInt(a.substr(0,2),16),n=2;a.length-n;n+=2)i=parseInt(a.substr(n,2),16)^r,e+=String.fromCharCode(i);e=document.createTextNode(e),c.parentNode.replaceChild(e,c)}}}catch(u){}}();/* ]]&gt; */&lt;/script&gt;\n      Codec ID : V_MPEG4/ISO/AVC\n      Duration : 1h 35mn\n      Bit rate : 4 942 Kbps\n      Nominal bit rate : 5 073 Kbps\n      Width : 1 280 pixels\n      Height : 720 pixels\n      Display aspect ratio : 16:9\n      Frame rate : 24.000 fps\n      Resolution : 24 bits\n      Colorimetry : 4:2:0\n      Scan type : Progressive\n      Bits/(Pixel*Frame) : 0.223\n      Stream size : 3.28 GiB (75%)\n      Writing library : x264 core 78 r1318 fe83a90\n   Audio #2\n      ID : 2\n      Format : DTS\n      Format/Info : Digital Theater Systems\n      Codec ID : A_DTS\n      Duration : 1h 35mn\n      Bit rate mode : Constant\n      Bit rate : 1 510 Kbps\n      Channel(s) : 6 channels\n      Channel positions : Front: L C R, Surround: L R, LFE\n      Sampling rate : 48.0 KHz\n      Resolution : 24 bits\n      Stream size : 1.00 GiB (23%)\n &lt;a href=&quot;\nhttp://www.imdb.com/title/tt0462477/&quot; rel=&quot;nofollow&quot; target=&quot;_NEW&quot;&gt;\nhttp://www.imdb.com/title/tt0462477/&lt;/a&gt;\n\nEnglish audio; English, Spanish and Portuguese subtitles\n\nAdrian Shergold - The Last Hangman (2005)","torrent":{"xt":"urn:btih:d4006d90cdc14018855a44c0328f147363055c65","amp;dn":"Adrian+Shergold+-+The+Last+Hangman+%282005%29","amp;tr":["udp%3A%2F%2Ftracker.openbittorrent.com%3A80","udp%3A%2F%2Fopen.demonii.com%3A1337","udp%3A%2F%2Ftracker.coppersurfer.tk%3A6969","udp%3A%2F%2Fexodus.desync.com%3A6969"],"infoHash":"d4006d90cdc14018855a44c0328f147363055c65","infoHashBuffer":{"type":"Buffer","data":[212,0,109,144,205,193,64,24,133,90,68,192,50,143,20,115,99,5,92,101]},"announce":[],"urlList":[]}}